PathFileType	4	(X/Y/Z)	C:/Users/beibeiliu/ov580/test_trc/User3\sequence.14_training_dense_left.trc
DataRate	CameraRate	NumFrames	NumMarkers	Units	OrigDataRate	OrigDataStartFrame	OrigNumFrames
120	120	21	19	mm	120	29	84
Frame#	Time	ThumbCMC			ThumbMCP			ThumbIP			ThumbTip			IndexMCP			IndexPIP			IndexTip			MiddleMCP			MiddlePIP			MiddleTip			RingMCP			RingPIP			RingTip			PinkyMCP			PinkyPIP			PinkyTip			BackHand1			BackHand2			BackHand3	
		X0	Y0	Z0	X1	Y1	Z1	X2	Y2	Z2	X3	Y3	Z3	X4	Y4	Z4	X5	Y5	Z5	X6	Y6	Z6	X7	Y7	Z7	X8	Y8	Z8	X9	Y9	Z9	X10	Y10	Z10	X11	Y11	Z11	X12	Y12	Z12	X13	Y13	Z13	X14	Y14	Z14	X15	Y15	Z15	X16	Y16	Z16	X17	Y17	Z17	X18	Y18	Z18	
28	0.233333	-137.146	30.4425	26.5878	-130.121	29.4435	-6.38185	-133.287	15.8704	-36.6449	-135.188	-7.94286	-45.9487	-200.516	19.0675	-13.5974	-213.479	22.2509	-35.6538	-225.521	23.3511	-63.5635	-184.676	-1.39292	-27.4317	-157.123	1.61071	-49.9947	-134.133	2.15396	-22.1402	-173.015	-20.3529	-27.7798	-145.858	-14.0683	-41.8494	-127.11	-7.51057	-17.7084	-176.99	-38.6525	-8.21818	-185.377	-41.7638	-31.0812	-193.824	-43.0947	-52.1356	-174.568	-26.5833	31.7396	-153.851	-24.5333	60.7626	-167.633	6.95092	46.7878	
29	0.241667	-121.214	30.6239	28.6759	-119.77	27.0025	-8.20324	-124.042	16.8215	-38.9318	-138.161	-8.69896	-46.7482	-185.957	42.8341	-12.3975	-197.117	53.0892	-36.5285	-206.468	59.3851	-62.7927	-183.228	15.1642	-28.6583	-157.195	8.3875	-48.6164	-131.967	4.28838	-16.0857	-178.79	-2.18999	-24.0375	-153.588	-9.86057	-39.1452	-132.552	-12.4554	-14.4673	-187.912	-15.7194	-4.98411	-200.2	-16.1966	-26.6253	-208.369	-14.6501	-47.3519	-175.744	-0.981213	37.2731	-160.017	-8.41145	59.8372	-158.854	25.3985	47.367	
30	0.25	-115.198	25.4568	23.0307	-108.477	18.8139	-14.2567	-119.932	4.0107	-35.6184	-142.105	-13.8835	-41.3246	-165.03	58.701	-25.4211	-172.998	61.4812	-45.9757	-181.508	66.3308	-75.0969	-173.627	25.6371	-30.429	-152.972	5.75793	-50.4546	-133.148	-2.6655	-19.4252	-177.693	8.33244	-27.9433	-156.157	-12.5173	-37.7048	-135.056	-10.7507	-12.902	-192.956	1.15748	-6.96769	-202.166	1.07684	-24.7655	-213.867	4.95753	-49.0197	-179.233	15.3959	33.2107	-163.007	5.981	60.0482	-150.242	35.7824	41.4064	
31	0.258333	-103.065	21.8993	20.4092	-96.7303	4.83589	-15.6696	-112.396	-8.70609	-35.5107	-137.448	-23.2337	-42.9582	-144.565	52.8607	-40.1081	-144.434	55.411	-63.9319	-148.867	55.0306	-90.9524	-157.232	25.2176	-43.9282	-141.673	-1.51042	-52.7049	-124.641	-7.57266	-17.2909	-169.55	9.79751	-30.3564	-154.073	-12.9116	-39.9001	-134.479	-16.2893	-11.0076	-187.187	9.79822	-9.72639	-198.053	9.74763	-32.0868	-204.737	10.2986	-50.2125	-168.343	31.2344	25.1342	-155.619	23.751	53.9373	-132.898	45.0925	28.7696	
32	0.266667	-93.1236	17.6901	17.6254	-87.5876	-6.71406	-9.44572	-102.148	-26.4505	-30.9266	-129.979	-33.4852	-32.5363	-120.274	38.5384	-47.7113	-123.088	32.0941	-76.4753	-125.869	23.5525	-101.231	-142.656	14.1005	-46.8251	-131.939	-17.5342	-52.2037	-118.088	-16.5496	-14.3938	-154.419	5.10828	-36.4414	-145.983	-24.2041	-36.8108	-130.289	-23.4879	-6.53485	-177.571	9.79862	-18.7041	-181.594	6.01745	-40.2583	-190.685	-0.174686	-61.746	-157.112	37.5803	12.5097	-147.169	36.2515	44.2361	-124.34	44.1061	20.395	
33	0.275	-81.9387	13.3509	21.058	-79.3594	-19.0394	-0.531756	-97.3841	-41.7328	-19.7246	-120.877	-46.8403	-20.7065	-106.679	15.5656	-51.7168	-105.269	2.75306	-77.1035	-103.699	-14.7371	-98.0828	-125.777	-5.5439	-48.7571	-120.494	-35.7956	-42.2456	-111.675	-27.3123	-5.63436	-141.028	-10.5767	-36.7623	-136.179	-36.8946	-27.1113	-123.837	-28.0514	4.6648	-166.457	2.00301	-27.4636	-167.967	-9.3253	-44.1391	-177.53	-20.1312	-60.9648	-141.814	36.8629	0.953991	-140.006	43.1554	29.4086	-112.287	43.7001	9.95523	
34	0.283333	-77.4131	8.7484	29.1251	-72.963	-28.095	17.5612	-88.1904	-50.1773	1.55265	-114.096	-55.5191	-7.29839	-84.8146	-6.41717	-44.1443	-82.8842	-30.1842	-66.2418	-82.016	-47.1285	-78.4469	-109.672	-23.9023	-42.271	-110.738	-50.7445	-23.7156	-106.307	-27.2222	8.46014	-130.449	-21.7509	-31.738	-124.957	-48.2164	-13.4334	-118.571	-30.2701	15.4623	-151.229	-4.14112	-25.1644	-153.477	-23.6364	-44.7899	-155.483	-43.9705	-56.5319	-127.135	31.7813	-6.02951	-129.685	46.3207	23.5869	-99.6946	37.029	6.41724	
35	0.291667	-72.1858	15.9968	37.1261	-68.0348	-21.0079	24.6529	-78.7081	-43.9672	11.9337	-102.24	-53.3358	1.65781	-68.5406	-9.67635	-37.0404	-60.565	-36.5148	-51.6458	-60.5726	-56.1975	-59.896	-98.967	-26.8669	-34.3833	-96.1189	-49.6238	-11.638	-96.35	-22.4727	16.6753	-117.716	-24.0549	-26.6779	-114.889	-46.467	-3.0622	-110.273	-26.5187	20.8702	-137.831	-7.17269	-31.7036	-137.426	-30.6807	-43.0353	-138.466	-54.113	-41.44	-120.522	32.673	-11.2897	-125.979	51.0499	15.4838	-92.2156	40.309	8.85264	
36	0.3	-72.0898	39.641	39.5043	-58.8478	4.75242	31.6102	-60.5535	-22.0145	21.0629	-78.0095	-43.0644	8.62113	-58.186	7.52464	-30.6349	-44.2993	-12.7484	-39.9593	-34.6569	-37.7176	-44.694	-77.6565	-11.5183	-26.4999	-70.1857	-33.705	-3.46505	-86.8544	-7.61383	21.7452	-98.3922	-14.8363	-20.3362	-91.9844	-34.5497	2.16553	-95.4766	-7.57828	27.7963	-117.963	-7.04402	-28.2784	-108.893	-29.7352	-34.0329	-101.871	-54.1794	-19.4771	-121.931	37.5187	-9.27063	-130.822	55.198	11.1777	-96.0673	54.6946	7.84314	
37	0.308333	-87.6718	67.093	33.1235	-56.6713	44.7705	33.0684	-44.5255	19.9309	29.7769	-49.0941	-8.35277	21.8451	-49.4738	36.9012	-28.9558	-25.2792	26.1402	-32.1851	-3.03936	12.8197	-28.1688	-61.7312	12.8619	-19.4476	-45.4232	1.35945	7.24073	-73.5655	18.2749	26.7473	-75.7018	-0.92554	-11.8551	-61.2218	-5.78454	17.7714	-85.7709	13.8927	34.6331	-99.8571	-5.69295	-18.0451	-76.004	-22.7887	-18.4145	-57.8565	-27.3921	0.537395	-122.723	36.7522	-9.35565	-145.785	43.5506	6.9385	-110.427	66.3665	0.0685377	
38	0.316667	-111.899	73.2708	22.975	-72.479	73.3244	31.1598	-46.8572	54.3281	31.049	-44.843	27.8306	31.7318	-62.0159	55.6744	-29.4874	-30.8058	59.7705	-30.4182	-5.93166	54.2738	-25.0939	-56.8351	33.992	-17.971	-38.9615	34.3078	10.9596	-74.9928	40.2706	29.0733	-61.7792	16.5965	-5.30734	-49.7701	20.9276	23.0382	-78.126	32.0268	37.6396	-78.7642	-2.86237	-8.66774	-53.2469	-9.16609	-5.69887	-32.0711	-1.43154	16.6367	-122.388	18.7466	-7.69489	-146.452	25.756	5.64994	-129.197	55.8101	-7.85834	
39	0.325	-134.489	61.2234	16.4752	-102.362	77.0009	22.0505	-67.0373	71.2144	23.984	-52.4532	45.1902	28.5811	-75.5709	57.3847	-35.7222	-55.7819	69.2418	-38.8335	-28.2943	80.5715	-34.9999	-61.9799	38.0099	-18.785	-50.3892	54.2051	7.02732	-79.9124	51.3786	26.9661	-65.0461	26.3329	-5.24397	-55.8668	39.6493	21.9416	-87.9126	39.7327	36.318	-69.2083	0.254937	-3.18727	-45.1068	6.17004	-2.42493	-25.0355	21.3932	9.95889	-121.539	4.72837	-6.28263	-143.894	-0.677625	11.9735	-143.094	33.7121	-7.45585	
40	0.333333	-154.258	44.8522	12.3262	-127.309	69.2577	10.9092	-95.3629	76.1733	10.7774	-71.2664	60.7367	17.7719	-99.3532	45.5555	-45.9242	-84.7995	65.3885	-54.4315	-64.8409	80.6648	-57.5806	-79.4291	38.4261	-27.1801	-70.3048	62.5253	-8.21635	-100.524	56.4222	17.4011	-73.0931	27.5722	-10.1759	-68.6909	50.1562	10.6288	-100.094	42.6298	27.3759	-72.514	4.48227	-3.83288	-49.893	14.883	-7.30422	-32.5078	32.0858	-12.114	-114.206	-12.7662	-1.93718	-137.672	-21.3013	19.0836	-148.244	4.20013	-4.7121	
41	0.341667	-164.306	17.1856	10.7272	-148.223	47.6625	4.30703	-116.068	65.6624	-4.14051	-90.9596	55.346	1.72767	-121.25	21.1458	-52.9565	-112.415	38.5959	-69.7143	-97.7808	57.8488	-80.8855	-93.0514	26.3938	-38.2048	-90.803	55.9914	-24.8243	-109.694	45.1854	8.28817	-81.9774	19.5943	-19.8877	-84.7232	47.6627	-5.83165	-108.659	37.6746	16.1739	-70.1917	0.457168	-8.9686	-56.764	15.2858	-19.2624	-39.8332	31.268	-29.9783	-111.782	-26.3237	0.859681	-128.91	-35.9178	24.4174	-149.288	-19.8196	0.4108	
42	0.35	-160.23	0.567946	11.5678	-152.555	32.2893	-4.83783	-122.119	43.6532	-16.5292	-99.0001	41.5144	-12.8387	-132.637	-5.72147	-56.8101	-124.856	10.7391	-80.4352	-116.179	27.6746	-99.8217	-100.907	6.39162	-47.5486	-97.6946	36.5448	-38.7921	-118.2	30.4387	-2.84907	-87.2959	3.08471	-28.853	-86.7158	32.2283	-16.521	-108.992	25.6246	6.87581	-72.9748	-12.9953	-16.5694	-62.8057	-0.716232	-32.6969	-51.652	11.6852	-48.1442	-110.818	-40.7265	5.33737	-121.226	-46.7416	32.2257	-145.504	-36.6442	7.22955	
43	0.358333	-158.086	-6.00492	15.3416	-144.737	15.358	-9.47346	-123.092	24.8914	-28.4812	-92.9309	17.2539	-31.533	-138.103	-32.8763	-55.6335	-140.62	-24.3997	-79.9545	-132.022	-14.9701	-102.712	-109.175	-25.6528	-50.0163	-103.492	9.55045	-53.3644	-111.729	13.1538	-16.6808	-93.7749	-22.0088	-39.3635	-87.0023	5.46497	-35.7795	-101.291	8.42387	-2.59706	-84.2448	-39.3964	-26.2225	-73.7915	-33.3235	-43.7881	-65.9824	-25.6918	-62.0325	-115.849	-55.4032	6.69389	-118.574	-55.9018	39.4553	-149.888	-44.9769	16.1237	
44	0.366667	-144.373	1.52372	19.5093	-128.804	15.5006	-14.2619	-109.919	8.7164	-42.9498	-91.8106	-11.4042	-43.0229	-157.805	-34.2817	-47.6058	-157.641	-33.6481	-74.4544	-148.116	-30.3119	-102.369	-130.211	-41.8555	-49.0327	-107.545	-21.0348	-62.0871	-105.386	-2.54566	-25.0882	-109.04	-47.0603	-42.2536	-90.8186	-26.0545	-45.8921	-93.4405	-11.6549	-12.4935	-108.57	-63.4572	-21.7447	-102.505	-64.7926	-49.4499	-98.2437	-58.462	-72.3716	-133.549	-58.8719	14.5912	-134.652	-51.8159	42.6745	-159.476	-34.3126	20.3864	
45	0.375	-119.592	20.5271	17.6557	-102.655	18.3709	-16.4038	-93.66	3.85476	-38.923	-89.4363	-18.7881	-48.1705	-158.755	0.679686	-45.0773	-158.256	1.9597	-73.858	-151.879	-0.843555	-99.1322	-140.907	-22.4444	-50.4718	-109.213	-20.2975	-60.1144	-96.4663	-8.64468	-27.3133	-131.861	-36.101	-40.604	-102.948	-33.316	-48.8428	-92.2543	-20.0209	-15.29	-139.05	-53.7229	-24.2132	-137.903	-58.6665	-45.7707	-135.942	-57.7312	-67.835	-149.054	-37.9091	18.3539	-144.64	-28.9994	47.5021	-152.173	-0.246159	26.2299	
46	0.383333	-89.9522	32.5979	16.1215	-74.4292	23.0001	-15.892	-78.6123	6.48768	-41.0079	-94.561	-16.6402	-47.564	-132.855	43.2194	-42.3807	-134.029	44.7447	-68.7086	-132.245	38.8659	-96.3771	-133.245	16.1693	-51.0244	-104.763	-0.917832	-62.3373	-91.5062	-4.72072	-27.8888	-138.058	-8.01444	-40.5735	-109.716	-18.1707	-51.6504	-94.4594	-20.4086	-20.4687	-153.481	-14.4742	-25.9705	-155.572	-15.5062	-43.1441	-155.461	-19.1653	-67.5387	-148.527	6.81552	15.371	-139.801	2.50772	46.3994	-127.467	34.0376	26.4287	
47	0.391667	-67.4128	29.2619	16.0485	-63.8309	16.2018	-16.0483	-71.9039	4.46146	-47.2983	-95.5576	-8.22646	-53.743	-101.777	65.966	-44.4733	-99.2531	69.1942	-67.2235	-100.126	68.8617	-95.7464	-117.353	41.3757	-48.3514	-104.075	12.9747	-64.0895	-89.7247	1.91016	-28.233	-129.881	22.1106	-44.7988	-113.568	0.206013	-52.8825	-99.6049	-10.9604	-22.155	-148.01	23.384	-24.1992	-155.479	22.7548	-46.7347	-158.984	22.188	-70.9209	-132.653	35.835	17.3267	-127.047	32.3388	42.8923	-101.195	51.4336	26.7976	
48	0.4	-60.8684	20.2139	18.3102	-59.4045	4.65796	-14.9773	-71.7406	-5.72861	-45.6512	-101.223	-7.65803	-46.4501	-83.4434	62.3846	-45.0853	-83.8939	63.861	-72.0859	-84.7879	60.483	-98.2287	-107.581	42.3015	-49.234	-98.0254	11.1793	-62.4854	-88.6701	0.777885	-24.513	-120.44	31.5196	-40.662	-117.621	-0.124973	-48.3808	-99.5636	-6.81901	-18.9295	-144.573	36.9409	-26.862	-149.759	37.2143	-48.6551	-155.632	36.4795	-66.4208	-122.185	47.9339	17.1623	-117.491	41.1742	41.3168	-89.4294	50.5829	26.6596	
